<?xml version="1.0" encoding="utf-8"?>
<!-- Generator: Adobe Illustrator 17.1.0, SVG Export Plug-In . SVG Version: 6.00 Build 0)  -->
<!DOCTYPE svg PUBLIC "-//W3C//DTD SVG 1.1//EN" "http://www.w3.org/Graphics/SVG/1.1/DTD/svg11.dtd">
<svg version="1.1" id="Layer_1" xmlns="http://www.w3.org/2000/svg" xmlns:xlink="http://www.w3.org/1999/xlink" x="0px" y="0px"
	 viewBox="0 0 278 24" enable-background="new 0 0 278 24" xml:space="preserve">
<rect x="57.557" y="7.676" width="5.434" height="14.859"/>
<rect x="36.356" y="7.676" width="5.433" height="14.859"/>
<path d="M69.568,9.461h0.068c1.398-1.73,3.172-2.246,4.673-2.246c4.91,0,6.551,2.589,6.551,6.275v9.046h-5.439v-8.728
	c0-1.726-1.075-2.564-2.714-2.564c-1.64,0-2.719,0.838-2.719,2.564v8.728h-5.434V7.684h5.014V9.461z"/>
<path d="M17.891,8.222c-1.287-0.749-2.752-1.411-4.352-1.411c-4.045,0-6.898,2.392-6.898,5.788c0,3.427,2.68,5.902,6.898,5.902
	c1.599,0,3.238-0.718,4.491-1.467l-0.73,5.242c-0.976,0.433-3.101,0.718-4.183,0.718c-7.281,0-12.4-4.145-12.4-10.278
	c0-5.904,5.118-10.393,12.366-10.393c1.325,0,2.717,0.172,3.904,0.632L17.891,8.222z"/>
<path d="M29.593,7.676h5.435v14.859h-5.016v-2.019h-0.067c-1.046,1.959-3.173,2.476-4.671,2.476c-4.91,0-6.547-2.59-6.547-6.276
	V7.735h5.433v8.664c0,1.73,1.081,2.562,2.717,2.562c1.637,0,2.716-0.832,2.716-2.562V7.676z"/>
<path d="M45.16,17.895c1.081,0.897,2.405,1.353,3.934,1.353c0.908,0,2.443-0.113,2.443-1.177c0-2.046-8.362,0-8.362-6.021
	c0-3.31,3.238-4.835,6.794-4.835c2.157,0,4.386,0.865,5.954,2.073l-2.995,2.505c-0.766-0.49-1.844-0.835-2.858-0.835
	c-0.66,0-1.843,0.112-1.843,0.891c0,2.478,8.359,0,8.359,6.164c0,3.253-3.517,4.98-7.037,4.98c-3.03,0-4.738-0.487-7.143-2.013
	L45.16,17.895z"/>
<path d="M84.909,7.878c1.393-0.405,3.408-0.663,4.911-0.663c4.46,0,7.523,1.525,7.523,5.183v10.138h-4.736v-1.241h-0.07
	c-1.045,1.323-2.615,1.697-4.458,1.697c-4.045,0-6.236-2.184-6.236-5.353c0-2.997,2.958-4.867,6.408-4.867
	c1.358,0,2.891,0.433,4.042,1.125c0.035-0.148,0.035-0.29,0.035-0.463c0-2.045-1.151-2.477-3.487-2.477
	c-1.6,0-3.237,0.345-4.7,0.891L84.909,7.878z M89.609,19.539c1.467,0,2.684-0.721,2.684-1.959c0-1.208-1.218-1.93-2.684-1.93
	c-1.498,0-2.713,0.722-2.713,1.93C86.896,18.818,88.112,19.539,89.609,19.539"/>
<path d="M98.748,7.654h4.806v2.592h0.07c1.043-2.592,2.969-2.818,5.931-2.818v4.216c-2.717-0.027-5.372,0.909-5.372,3.122v7.747
	h-5.435V7.654z"/>
<path d="M122.173,18.702l-0.796,4.283c-0.245,0.029-0.414,0.008-0.695,0.008c-4.809,0-7.35-1.901-7.35-5.846v-5.525h-3.118V7.576
	h3.118V4.938l5.435-1.726v4.364h3.101v4.045h-3.101v5.184c0,1.469,1.066,1.87,2.601,1.87L122.173,18.702z"/>
<rect x="36.392" y="3.453" width="5.312" height="3.031"/>
<rect x="57.472" y="3.453" width="5.312" height="3.031"/>
<path d="M120.425,14.877c0-0.909,0.685-1.603,1.562-1.603c0.862,0,1.548,0.695,1.548,1.603c0,0.923-0.687,1.603-1.548,1.603
	C121.11,16.48,120.425,15.8,120.425,14.877 M121.987,16.797c1.04,0,1.934-0.809,1.934-1.92c0-1.101-0.894-1.921-1.934-1.921
	c-1.054,0-1.947,0.821-1.947,1.921C120.04,15.988,120.932,16.797,121.987,16.797 M121.579,15.025h0.381l0.584,0.964h0.379
	l-0.629-0.976c0.321-0.042,0.57-0.215,0.57-0.608c0-0.436-0.26-0.628-0.777-0.628h-0.841v2.212h0.332V15.025z M121.579,14.745
	v-0.688h0.458c0.226,0,0.477,0.054,0.477,0.325c0,0.342-0.251,0.364-0.535,0.364H121.579z"/>
<path d="M145.759,7.244c-1.176-1.344-2.576-1.876-4.424-1.876c-1.512,0-2.549,0.532-2.549,1.512c0,3.417,11.621,0.392,11.621,9.017
	c0,3.5-2.8,7.057-8.989,7.057c-3.78,0-7.113-0.896-9.353-4.117l3.64-2.828c1.316,1.624,3.165,2.576,5.321,2.576
	c2.38,0,3.332-0.924,3.332-1.848c0-3.22-11.453-0.756-11.453-8.765c0-4.144,3.445-6.973,8.513-6.973
	c2.968,0,5.992,0.896,7.869,3.332L145.759,7.244z"/>
<path d="M152.984,7.665h5.265v2.1c1.344-1.176,2.856-2.492,4.928-2.492c1.904,0,3.332,0.868,4.004,2.688
	c1.568-1.624,2.884-2.688,5.181-2.688c2.941,0,4.145,2.156,4.145,4.2v11.089h-5.265v-9.465c0-1.064-0.252-2.128-1.596-2.128
	c-0.98,0-1.932,0.728-2.268,1.232v10.361h-5.265v-9.465c0-1.064-0.252-2.128-1.596-2.128c-0.98,0-1.932,0.728-2.268,1.232v10.361
	h-5.265V7.665z"/>
<path d="M179.164,11.417c0.672-3.192,3.696-4.144,6.637-4.144c5.461,0,6.636,2.016,6.636,4.369v7.981
	c0,0.504,0.056,2.184,0.588,2.94h-5.404c-0.112-0.364-0.196-0.868-0.224-1.344c-1.204,1.092-2.884,1.736-4.537,1.736
	c-1.428,0-4.396-0.756-4.396-4.396c0-4.089,4.592-5.293,8.905-5.321v-1.232c0-1.12-0.813-1.484-1.764-1.484
	c-1.288,0-1.764,0.7-2.072,1.82L179.164,11.417z M187.34,15.757c-1.512,0.196-3.78,0.588-3.78,2.353
	c0,1.092,1.064,1.596,1.625,1.596c0.783,0,1.4-0.308,2.156-0.84V15.757z"/>
<path d="M194.789,7.665h5.265v2.324h0.056c1.064-1.68,3.249-2.604,5.265-2.716v5.517c-1.12-0.532-2.1-0.756-2.857-0.756
	c-0.98,0-1.68,0.364-2.464,1.008v9.521h-5.265V7.665z"/>
<path d="M206.438,7.665h2.464l0.363-5.236h4.621v5.236h2.492v3.416h-2.492v7.029c0,0.896,0.616,1.26,1.456,1.26
	c0.252,0,0.812-0.112,1.176-0.196v3.5c-0.98,0.168-1.988,0.28-2.772,0.28c-4.004,0-5.124-1.372-5.124-4.032v-7.841h-2.184V7.665z"/>
<path d="M218.115,7.665h5.265v2.324h0.056c1.064-1.68,3.249-2.604,5.265-2.716v5.517c-1.12-0.532-2.1-0.756-2.857-0.756
	c-0.98,0-1.68,0.364-2.464,1.008v9.521h-5.265V7.665z"/>
<path d="M230.49,11.417c0.672-3.192,3.696-4.144,6.637-4.144c5.461,0,6.636,2.016,6.636,4.369v7.981c0,0.504,0.056,2.184,0.588,2.94
	h-5.404c-0.112-0.364-0.196-0.868-0.224-1.344c-1.204,1.092-2.884,1.736-4.537,1.736c-1.428,0-4.396-0.756-4.396-4.396
	c0-4.089,4.592-5.293,8.905-5.321v-1.232c0-1.12-0.812-1.484-1.764-1.484c-1.288,0-1.764,0.7-2.072,1.82L230.49,11.417z
	 M238.667,15.757c-1.512,0.196-3.78,0.588-3.78,2.353c0,1.092,1.064,1.596,1.625,1.596c0.783,0,1.4-0.308,2.156-0.84V15.757z"/>
<path d="M255.077,12.901c-0.084-1.176-0.476-2.212-1.96-2.212c-1.12,0-2.184,0.952-2.184,4.424c0,3.276,0.84,4.425,2.716,4.425
	c1.708,0,2.353-1.176,2.8-2.52l3.78,0.672c-1.288,3.276-3.472,5.265-7.169,5.265c-4.424,0-7.616-2.884-7.616-7.841
	c0-4.564,3.08-7.841,7.561-7.841c3.64,0,5.936,1.848,6.832,5.321L255.077,12.901z"/>
<path d="M261.769,1.392h5.264v11.817l5.237-5.937h5.012l-4.816,5.292l4.816,9.997h-5.852l-2.66-6.105h-0.056l-1.68,1.736v4.369
	h-5.264V1.392z"/>
</svg>
